<svg xmlns="http://www.w3.org/2000/svg" viewBox="0 0 346.8 336.53">
  <defs/>
  <defs>
    <clipPath id="a" clipPathUnits="userSpaceOnUse">
      <path d="M0 260.1h252.4V0H0z"/>
    </clipPath>
  </defs>
  <g clip-path="url(#a)" transform="matrix(1.33333 0 0 -1.33333 0 346.8)">
    <path fill="#2286ff" d="M219.1 151.1c-.46 1.1-1.06 2.09-1.61 3.12-.61.97-1.22 1.96-1.89 2.87a43.54 43.54 0 01-7.98 8.27l-5.87-11.51a29.43 29.43 0 003.65-4.12 20.43 20.43 0 003.49-7.79c.98-5.31-1.22-9.75-6.07-12.57-9.15-5.32-21.82-3.37-31.96-3.72-7.54-.26-15.26-.7-22.59-2.6a39.45 39.45 0 01-6.39-2.26 26.44 26.44 0 01-6.24-3.97c-3.67-3.18-6.75-8.48-7.47-13.49-.41-2.79-.13-5.61.56-8.08a28.31 28.31 0 012.84-6.63 50.46 50.46 0 014.78-6.77l6.07 11.88-.46.8a16.5 16.5 0 00-1.6 3.83c-.8 3.18.73 6.96 3.31 9.15 1.82 1.57 4.52 2.75 7.61 3.56l.11.03c1.56.39 3.2.71 4.89.96 8.21 1.22 16.53 1.25 24.81 1.34l2.86.04c4.07.06 8.2.06 12.23.66 8.43 1.25 16.03 4.97 21.32 11.74.7 1.1 1.42 2.18 1.96 3.38a24.16 24.16 0 011.84 15.01 28.74 28.74 0 01-2.2 6.87m-54.82-87.82c-.14.63-.25 1.23-.49 1.91l-.32.99-.38.9a29.67 29.67 0 01-2.99 5.23l-6.74-13.2a7.16 7.16 0 00-.58-3.06 11.74 11.74 0 00-2.98-3.9 23.02 23.02 0 00-2.64-2.11 44.55 44.55 0 00-4.24-2.57 95.74 95.74 0 00-4.86-2.44c-1.43-.66-2.89-1.31-4.38-1.98-1.95-.86-3.94-1.75-6-2.72l-.53-.27-9.64-4.84a164.21 164.21 0 01-7.71-4.06c-.87-.49-1.74-1-2.61-1.54l-.83-.53a40.49 40.49 0 01-8.65-7.38 36.7 36.7 0 01-6.22-10.43A53.41 53.41 0 0188.5 0c1.02 1.66 1.87 3.36 2.9 4.95l1.5 2.4 1.62 2.27a39.25 39.25 0 007.36 7.77 39.19 39.19 0 007.93 4.72c.37.18.74.35 1.12.51.84.37 1.69.72 2.56 1.08 2.51 1.01 5.13 1.96 7.77 2.96.82.3 1.64.62 2.47.94l2.57 1.01.32.13 5.26 2.16c1.05.43 2.12.84 3.23 1.27 1.83.7 3.72 1.41 5.61 2.2.59.24 1.17.48 1.76.74a64.56 64.56 0 0110.96 5.76 33.64 33.64 0 015.26 4.33 21.5 21.5 0 014.36 6.22 18.35 18.35 0 011.53 9.95c-.07.65-.16 1.3-.31 1.91m18.03 187.4c.23.28.54.45.88.52a2.62 2.62 0 002-.59c.98-.78 1.27-2.04.65-2.8a1.6 1.6 0 00-1.27-.56c-.53 0-1.12.2-1.62.62-.97.8-1.26 2.06-.64 2.82m-59.2-41.27l.1-.24.09-.16c1.04-1.81 2.01-3.67 3.14-5.43l1.79-2.59.89-1.29c.32-.42.66-.81.99-1.21 1.34-1.61 2.64-3.25 4.14-4.68l2.19-2.22 2.32-2.05c6.23-5.41 13.13-9.68 20.07-13.34 6.89-3.63 13.84-6.8 20.67-9.89l5.66 11.09-.34.15c-6.95 3.11-13.83 6.08-20.36 9.43-6.53 3.33-12.67 7.07-17.98 11.56a55.26 55.26 0 00-12.94 15.63c-2.41 5.66-3.53 11.63-2.22 17 1.27 5.43 4.94 10.22 10.03 13.55 5.07 3.35 11.35 5.22 17.68 5.67.92.06 1.85.1 2.78.1 4.38 0 7.83-.41 11.89-1.91-1.35 2.2-2.25 3.99-4.3 6.06 3.08-2.43 5.96-4.9 7.7-7.53 4.64-3.69 12.43-8.13 24.79-8.81h.01l1.65-.07h.18c.89 0 1.78.17 2.61.49l1.52.59a2.52 2.52 0 01.8 4.21l-.09.08c-5.74 5.22-17.82 15.86-21.1 16.23-.48.05-1.03.07-1.63.07-2.17 0-5.04-.3-7.56-.64-1.5-.2-2.99-.3-4.49-.3-2.01 0-4.02.17-6.02.5-2.59.42-5.22.63-7.83.63l-1.37-.02a46.48 46.48 0 01-22.77-6.56 36.1 36.1 0 01-9.37-8.2 30.86 30.86 0 01-5.75-11.47 33.19 33.19 0 01-.75-12.67 47.25 47.25 0 013.18-11.76m84.81 28.57c.11-.06.22-.13.33-.22.7-.57 1.48-1.04 2.18-1.62a45.32 45.32 0 003.55-3.26c.2-.2.33-.63.47-.9l.54-1c.38-.68.78-1.35 1.25-1.97a7.73 7.73 0 014.33-2.9c-2.77 1.48-4.37 4.24-5.4 7.12.05-.12 1.17-.33 1.32-.4.56-.2 1.08-.5 1.52-.91.72-.68 1.11-1.61 1.99-2.2.87-.58 2.99-.77 2.99-.77l-2.27 1.1c-.64.3-1.43 1.68-2.07 2.44-.55.65-1.53 1.06-2.26 1.45-1.06.57-2.24.94-3.16 1.74l-1.62 1.4-2.31 2zM172 217l1.5-5.5c10.11-.89 22.28-2.82 30.24-6.5l-13.11-25.67-1.82-3.57-5.67-11.09-1.82-3.57-16.19-31.71c2.64.16 5.24.26 7.81.34l14.56 28.5 1.82 3.56 5.67 11.12 1.82 3.57L211.38 205h5.02l-15.57-30.48-1.82-3.57-5.69-11.13-1.82-3.56-13.49-26.41 2.36.05 3.29.06 1.41.03 11.69 22.88 1.85 3.62 5.75 11.27 1.83 3.58L223.38 205c6.33 3.99 18.25 5.77 25.91 6.5l3.1 5.5zM115.71 38.79l1.99 1-81.75 165.23 17.93-.02 73.75-149.04-7.69-15.04 5.94 2.98.05.03.04.02c1.41.66 2.79 1.29 4.13 1.89l12.07 23.63 1.93 3.79 5.68 11.12 1.95 3.82 10.48 20.51-.25-.02a68.3 68.3 0 01-7.96-1.09l-6.95-13.61-2.04-3.99-5.83-11.43-1.95-3.81-3.53-6.91L65.69 205c5.33 4.58 15.72 5.75 27.31 6.5l2 5.5H0l2.15-5.5c1.9 0 3.8-.12 5.71-.36 8.7-1.08 16.58-7.52 20.49-15.36l79.67-161.03c2.61 1.47 5.21 2.8 7.69 4.04M42.39 201.01l76.19-153.98 4.57 8.96L51.4 201zM154.93 84.66l-1.94-3.8-5.67-11.1-1.96-3.83-8.77-17.17a59.63 59.63 0 018.29 4.56c.64.45 1.21.89 1.7 1.3l2.68 5.25 2.3 4.52 5.84 11.43 1.98 3.86 15.12 29.61c-2.41-.06-4.78-.13-7.11-.24zm-32.26-61.74l-2.72-1.03c-1.62-.61-3.17-1.19-4.68-1.8L122 6.5l10.35 20.27-4.24-1.75a198.7 198.7 0 00-5.44-2.1"/>
  </g>
</svg>
